<svg width="133" height="145" viewBox="0 0 133 145" fill="none" xmlns="http://www.w3.org/2000/svg">
<g id=".">
<path id="Vector" d="M34.0702 82.3564C33.545 82.1384 32.9845 82.0422 32.4239 82.0737C31.8633 82.1053 31.3147 82.264 30.8123 82.54C30.3099 82.8159 29.8647 83.2031 29.5043 83.6774C29.144 84.1517 28.8764 84.7028 28.7182 85.2962L24.6389 100.58C24.3532 101.652 24.4406 102.804 24.8841 103.81C25.3276 104.816 26.0954 105.603 27.0375 106.019L63.7512 122.201C64.7252 122.631 65.8121 122.631 66.7862 122.201L103.5 106.019C104.442 105.603 105.21 104.816 105.653 103.81C106.097 102.804 106.184 101.652 105.898 100.58L101.819 85.2962C101.661 84.7028 101.393 84.1517 101.033 83.6774C100.673 83.2031 100.227 82.8159 99.725 82.54C99.2226 82.264 98.674 82.1053 98.1134 82.0737C97.5528 82.0422 96.9924 82.1384 96.4671 82.3564L65.2687 95.2484L34.0702 82.3564Z" fill="white"/>
<path id="Vector_2" d="M66.9901 19.56C66.4509 19.2834 65.8634 19.1401 65.2687 19.1401C64.6739 19.1401 64.0864 19.2834 63.5472 19.56L2.35783 51.0256C1.63728 51.3962 1.03074 51.9908 0.612795 52.7362C0.194854 53.4817 -0.016264 54.3455 0.00540663 55.2214C0.0270772 56.0973 0.280591 56.9471 0.73477 57.6663C1.18895 58.3856 1.82399 58.9428 2.56179 59.2696L63.7512 86.2402C64.7252 86.6703 65.8121 86.6703 66.7862 86.2402L114.22 65.347V118.029C112.056 118.029 109.981 118.977 108.451 120.663C106.921 122.349 106.062 124.635 106.062 127.02V145H130.537V127.02C130.537 124.635 129.678 122.349 128.148 120.663C126.618 118.977 124.543 118.029 122.379 118.029V61.7419L127.976 59.2696C128.713 58.9428 129.348 58.3856 129.803 57.6663C130.257 56.9471 130.51 56.0973 130.532 55.2214C130.554 54.3455 130.342 53.4817 129.925 52.7362C129.507 51.9908 128.9 51.3962 128.18 51.0256L66.9901 19.56Z" fill="white"/>
</g>
</svg>
