<svg width="86" height="102" viewBox="0 0 86 102" fill="none" xmlns="http://www.w3.org/2000/svg">
<path d="M5.81687 25.254C19.9415 11.0948 42.7633 11.0265 56.9788 25.0263L47.6229 34.3823C46.056 35.953 45.6019 38.2977 46.4421 40.3465C47.2823 42.3952 49.2806 43.7155 51.4833 43.7155H78.6198H80.55C83.5702 43.7155 86 41.2798 86 38.2522V9.11433C86 6.90622 84.6829 4.90299 82.6392 4.06073C80.5954 3.21846 78.2565 3.67374 76.6896 5.24445L67.2429 14.7143C47.3504 -4.97656 15.309 -4.90827 -4.47 14.9419C-10.0108 20.4963 -14.0075 27.0296 -16.46 34.0181C-17.7998 37.8197 -15.8015 41.9627 -12.0319 43.3058C-8.26229 44.6489 -4.10667 42.6456 -2.76687 38.8668C-1.01833 33.9043 1.82021 29.2377 5.81687 25.254ZM-23 63.7478V65.4779V65.6372V92.8857C-23 95.0938 -21.6829 97.097 -19.6392 97.9393C-17.5954 98.7815 -15.2565 98.3263 -13.6896 96.7556L-4.24292 87.2857C15.6496 106.977 47.691 106.908 67.47 87.0581C73.0108 81.5037 77.0302 74.9705 79.4827 68.0047C80.8225 64.2031 78.8242 60.0601 75.0546 58.717C71.285 57.3739 67.1294 59.3771 65.7896 63.156C64.041 68.1185 61.2025 72.7851 57.2058 76.7688C43.0813 90.928 20.2594 90.9963 6.04396 76.9964L15.3771 67.6177C16.944 66.047 17.3981 63.7023 16.5579 61.6535C15.7177 59.6048 13.7194 58.2845 11.5167 58.2845H-15.6425H-15.8015H-17.55C-20.5702 58.2845 -23 60.7202 -23 63.7478Z" fill="#848080"/>
</svg>
