<svg width="109" height="115" viewBox="0 0 109 115" fill="none" xmlns="http://www.w3.org/2000/svg">
<path d="M-4.15 0C0.690201 0 5.33216 1.92605 8.7547 5.35445C12.1772 8.78285 14.1 13.4328 14.1 18.2812C14.1 23.1297 12.1772 27.7796 8.7547 31.208C5.33216 34.6364 0.690201 36.5625 -4.15 36.5625C-8.9902 36.5625 -13.6322 34.6364 -17.0547 31.208C-20.4772 27.7796 -22.4 23.1297 -22.4 18.2812C-22.4 13.4328 -20.4772 8.78285 -17.0547 5.35445C-13.6322 1.92605 -8.9902 0 -4.15 0ZM79.8 0C84.6402 0 89.2822 1.92605 92.7047 5.35445C96.1272 8.78285 98.05 13.4328 98.05 18.2812C98.05 23.1297 96.1272 27.7796 92.7047 31.208C89.2822 34.6364 84.6402 36.5625 79.8 36.5625C74.9598 36.5625 70.3178 34.6364 66.8953 31.208C63.4728 27.7796 61.55 23.1297 61.55 18.2812C61.55 13.4328 63.4728 8.78285 66.8953 5.35445C70.3178 1.92605 74.9598 0 79.8 0ZM-37 68.2576C-37 54.798 -26.0956 43.875 -12.6591 43.875H-2.91813C0.709061 43.875 4.15375 44.6748 7.25625 46.0916C6.95969 47.7369 6.82281 49.4508 6.82281 51.1875C6.82281 59.9168 10.6553 67.7549 16.7006 73.125C16.655 73.125 16.6094 73.125 16.5409 73.125H-32.1409C-34.81 73.125 -37 70.9313 -37 68.2576ZM55.4591 73.125C55.4134 73.125 55.3678 73.125 55.2994 73.125C61.3675 67.7549 65.1772 59.9168 65.1772 51.1875C65.1772 49.4508 65.0175 47.7598 64.7438 46.0916C67.8463 44.652 71.2909 43.875 74.9181 43.875H84.6591C98.0956 43.875 109 54.798 109 68.2576C109 70.9541 106.81 73.125 104.141 73.125H55.4591ZM14.1 51.1875C14.1 45.3693 16.4073 39.7894 20.5144 35.6753C24.6214 31.5613 30.1918 29.25 36 29.25C41.8082 29.25 47.3786 31.5613 51.4856 35.6753C55.5927 39.7894 57.9 45.3693 57.9 51.1875C57.9 57.0057 55.5927 62.5856 51.4856 66.6997C47.3786 70.8137 41.8082 73.125 36 73.125C30.1918 73.125 24.6214 70.8137 20.5144 66.6997C16.4073 62.5856 14.1 57.0057 14.1 51.1875ZM-7.8 110.899C-7.8 94.0799 5.81906 80.4375 22.6091 80.4375H49.3909C66.1809 80.4375 79.8 94.0799 79.8 110.899C79.8 114.258 77.0853 117 73.7091 117H-1.70906C-5.0625 117 -7.8 114.281 -7.8 110.899Z" fill="#EF2904"/>
</svg>
