<svg width="126" height="128" viewBox="0 0 126 128" fill="none" xmlns="http://www.w3.org/2000/svg">
<path d="M50.5323 15.3309L44.3453 1.79481C43.3228 -0.555604 40.1244 -0.640558 38.9971 1.79481L32.8101 15.3309L19.099 17.4548C16.6609 17.8512 15.6122 21.1078 17.4212 23.0618L27.3833 33.5395L25.0239 48.2933C24.6568 50.9269 27.1736 52.9658 29.4282 51.7481L41.7236 44.7252L53.9404 51.6349C56.195 52.8525 58.738 50.8136 58.3447 48.18L55.9853 33.4262L65.9474 23.0618C67.7302 21.1361 66.7077 17.8795 64.2696 17.4548L50.5585 15.3309H50.5323ZM24.8928 72.5054C20.2525 72.5054 16.5036 76.5549 16.5036 81.5672V135.938C16.5036 140.95 20.2525 145 24.8928 145H58.4496C63.0899 145 66.8388 140.95 66.8388 135.938V81.5672C66.8388 76.5549 63.0899 72.5054 58.4496 72.5054H24.8928ZM-33.8316 90.629C-38.4719 90.629 -42.2208 94.6785 -42.2208 99.6908V135.938C-42.2208 140.95 -38.4719 145 -33.8316 145H-0.274815C4.36546 145 8.11439 140.95 8.11439 135.938V99.6908C8.11439 94.6785 4.36546 90.629 -0.274815 90.629H-33.8316ZM75.228 117.815V135.938C75.228 140.95 78.9769 145 83.6172 145H117.174C121.814 145 125.563 140.95 125.563 135.938V117.815C125.563 112.802 121.814 108.753 117.174 108.753H83.6172C78.9769 108.753 75.228 112.802 75.228 117.815Z" fill="#78FFFF" fill-opacity="0.5"/>
</svg>
