<svg width="102" height="114" viewBox="0 0 102 114" fill="none" xmlns="http://www.w3.org/2000/svg">
<path opacity="0.91" d="M66.1671 9.50968C69.0226 12.7606 68.8014 17.6407 65.6722 20.4301L60.0149 25.4732L80.6648 48.9829L86.3221 43.9398C89.4513 41.1504 94.2864 41.5233 97.1419 44.7742C99.9974 48.0252 99.7763 52.9052 96.6471 55.6947L90.9898 60.7377L98.7335 69.5538C103.009 74.4211 102.676 81.7583 97.9912 85.9345L89.5052 93.4991L17.2306 11.2152L25.7166 3.65064C30.4015 -0.525624 37.6711 0.0349744 41.9462 4.90221L49.69 13.7183L55.3473 8.6753C58.4765 5.88587 63.3116 6.25873 66.1671 9.50968ZM11.5732 16.2582L83.8479 98.5421L35.7607 141.408C31.0757 145.584 23.8061 145.024 19.531 140.156L-37.2563 75.5048C-41.5315 70.6376 -41.199 63.3004 -36.514 59.1241L11.5732 16.2582ZM44.6725 94.4937C47.8508 94.7388 50.5381 92.3434 50.6657 89.1512C50.7934 85.9591 48.3589 83.1516 45.1967 82.9249L13.0755 80.4478L13.8023 64.4084C13.9476 61.2005 11.4955 58.4087 8.33328 58.182C5.1711 57.9552 2.46774 60.3323 2.34006 63.5244L1.35036 85.3654C1.205 88.5732 3.65718 91.365 6.81936 91.5918L44.6725 94.4937Z" fill="#FF4B86"/>
</svg>
