<svg width="144" height="144" viewBox="0 0 144 144" fill="none" xmlns="http://www.w3.org/2000/svg">
<g style="mix-blend-mode:overlay">
<path fill-rule="evenodd" clip-rule="evenodd" d="M98.5724 94.5514C101.015 92.2731 104.647 91.2042 108.021 92.1606C128.88 98.0393 143.986 115.141 143.986 135.365C143.986 140.118 139.55 144 134.119 144H9.86688C4.43528 144 -6.35944e-07 140.146 -6.35944e-07 135.365C-6.35944e-07 115.141 15.1056 98.0393 35.9964 92.1606C39.3711 91.2042 43.0029 92.2731 45.4455 94.5514L68.2646 115.788C70.2894 117.672 73.7284 117.672 75.7532 115.788L98.5724 94.5514Z" fill="#BF8D1A"/>
<path d="M73.5034 0.126575C72.5071 -0.0421916 71.4786 -0.0421916 70.4823 0.126575L6.20296 11.3777C2.60332 11.9965 -6.35944e-07 14.7811 -6.35944e-07 17.9877C-6.35944e-07 21.1943 2.60332 23.9789 6.20296 24.5977L30.8541 28.9294V44.9903C30.8541 64.8766 49.2701 80.9938 71.9928 80.9938C94.7156 80.9938 113.132 64.8766 113.132 44.9903V28.9294L128.559 26.2291V44.5403L123.513 66.5924C123.223 67.9144 123.609 69.2927 124.573 70.3334C125.538 71.3742 127.016 71.993 128.559 71.993H138.843C140.386 71.993 141.832 71.4023 142.829 70.3334C143.825 69.2646 144.211 67.9144 143.889 66.5924L138.843 44.5403V24.3446C141.897 23.4163 143.986 20.8849 143.986 17.9877C143.986 14.7811 141.382 11.9965 137.783 11.3777L73.5034 0.126575Z" fill="#BF8D1A"/>
</g>
</svg>
